<?xml version="1.0" encoding="utf-8"?>
<!-- Generator: Adobe Illustrator 19.0.0, SVG Export Plug-In . SVG Version: 6.00 Build 0)  -->
<svg version="1.1" id="Layer_1" xmlns="http://www.w3.org/2000/svg" xmlns:xlink="http://www.w3.org/1999/xlink" x="0px" y="0px"
	 viewBox="0 0 347.9 136.4" style="enable-background:new 0 0 347.9 136.4;" xml:space="preserve">
<style type="text/css">
	.st0{fill:none;}
</style>
<g id="XMLID_3_">
	<g id="XMLID_2_">
		<rect id="XMLID_70_" x="0" y="18.2" class="st0" width="347.9" height="87.2"/>
		<path id="XMLID_57_" d="M4.4,72.4c-1.8-1.4-2.7-2.6-2.7-3.5c0-1.7,0.9-3.2,2.7-4.4l31.6-22c2.1-1.4,3.6-2.5,4.7-3.4
			c1.5-1.3,2.7-1.9,3.7-1.9c1.8,0,2.8,0.7,2.8,2c0,1-0.8,2-2.5,3.1c-3.6,2.3-5.5,3.5-5.8,3.7L6.9,68.5c19.2,14,29.2,21.3,30.1,21.8
			l6.5,4.3c1.1,0.7,2,1.3,2.7,1.9c0.7,0.6,1,1.2,1,2s-0.2,1.3-0.7,1.8c-0.5,0.4-1,0.6-1.6,0.6c-1.1,0-2.2-0.5-3.3-1.4
			c-1.1-0.9-2.4-1.9-4-3L4.4,72.4z"/>
		<path id="XMLID_59_" d="M61,100.9c-1.6,0-2.4-0.9-2.4-2.8c0-1,0.5-2.3,1.5-3.7c0.8-1.7,1.8-4.3,2.8-7.7l17.7-60.6
			c1.5-5.2,2.9-8,4.1-8.6c0.4-0.2,0.9-0.3,1.4-0.3c1.5,0,2.2,0.7,2.2,2.1c0,0.8-0.2,1.6-0.6,2.4c-0.4,0.8-0.7,1.4-1,1.9
			c-0.2,0.5-0.4,1-0.7,1.5l-0.6,1.7c-0.2,0.6-0.4,1.1-0.6,1.6L66.4,91.2c-1.2,4.2-2.1,6.7-2.7,7.6C63,100.2,62,100.9,61,100.9z"/>
		<path id="XMLID_61_" d="M141.6,96c-4.9,3.3-10.4,4.9-16.4,4.9c-8,0-14.3-2-19.1-6c-5-4.1-7.5-9.8-7.5-17.1
			c0-6.5,2.5-11.8,7.4-15.9c5.1-4.2,11.7-6.3,20-6.3c5.5,0,10.7,1.1,15.6,3.2V42.9c-3.5-1-6.6-1.5-9.2-1.5c-2.7,0-4.9,0.1-6.8,0.3
			s-3.6,0.6-5.2,1c-3.6,1-6.3,2.3-8.1,4c-1.1,1-2.1,1.5-2.9,1.5c-0.9,0-1.6-0.2-2-0.7c-0.5-0.4-0.7-0.9-0.7-1.5c0-0.5,0.1-1,0.3-1.5
			c0.2-0.4,0.6-0.9,1.1-1.4c1.2-1,3.1-2,5.8-3c5.6-2.1,11.2-3.2,16.8-3.2c17.1,0,27.9,4.1,32.7,12.2c2.1,3.6,3.1,8.4,3.1,14.2v36.1
			h-24.7V96z M141.6,63.2c-4.8-2.3-9.7-3.5-14.5-3.5c-0.8,0-1.5,0.1-2.2,0.2v36.6c0.2,0,0.4,0.1,0.6,0.1s0.5,0,0.7,0
			c5.3,0,10.4-1.9,15.3-5.6V63.2z"/>
		<path id="XMLID_64_" d="M184.3,38.2H209v18.1c2.7-6.6,5.5-11.4,8.6-14.5c3.1-3.1,6.1-4.6,9.2-4.6c1.7,0,3.1,0.5,4.1,1.4
			c1,0.9,1.5,1.9,1.5,3c0,1.1-0.2,2-0.5,2.7c-0.3,0.7-0.7,1.2-1.2,1.7c-1,1-2,1.4-2.9,1.4c-1.5,0-2.5-0.2-3.2-0.5
			c-1.2-0.5-2.2-0.8-3.2-0.8s-2.1,0.7-3.5,2.2c-1.4,1.5-2.8,3.5-4.1,6.1c-3.2,6.4-4.8,13.3-4.8,20.7v24.6h-24.8V38.2z"/>
		<path id="XMLID_66_" d="M230.1,38.2h26.1l15.7,32.3l9.9-19.6c2-4.2,3.3-7.3,3.8-9.3c0.5-2,1-3.3,1.6-3.7c0.5-0.5,1.2-0.7,1.9-0.7
			c0.7,0,1.3,0.3,1.8,0.7c0.4,0.5,0.6,1,0.6,1.5c0,0.5,0,1-0.1,1.5c-0.1,0.5-0.3,1.2-0.5,2c-0.6,1.6-1.8,4.3-3.6,8.2l-25.4,51.2
			L230.1,38.2z"/>
		<path id="XMLID_68_" d="M298.1,100.2c-0.5-0.4-0.7-1-0.7-1.8s0.3-1.4,1-2c0.7-0.6,1.4-1.1,2.1-1.6c5.3-3.4,8.5-5.5,9.6-6.3
			l27.5-20.1l-31.9-22.6c-2.8-1.7-4.4-2.7-4.8-3c-0.4-0.3-1-0.6-1.7-1.1c-1.2-0.8-1.8-1.5-1.8-2.3c0-1.5,0.8-2.3,2.3-2.3
			c1.2,0,2.4,0.4,3.4,1.3c1.7,1.4,3.5,2.8,5.4,4l31.6,22c1.8,1.2,2.7,2.5,2.7,3.9c0,1.3-0.9,2.7-2.7,4L304.9,98
			c-0.6,0.4-1.1,0.9-1.7,1.3C301.1,101,299.4,101.3,298.1,100.2z"/>
	</g>
</g>
<g id="XMLID_1_">
</g>
<g id="XMLID_56_">
</g>
<g id="XMLID_71_">
</g>
<g id="XMLID_72_">
</g>
<g id="XMLID_73_">
</g>
<g id="XMLID_74_">
</g>
</svg>
