<?xml version="1.0" encoding="utf-8"?>
<!-- Generator: Adobe Illustrator 19.0.0, SVG Export Plug-In . SVG Version: 6.00 Build 0)  -->
<svg version="1.1" id="Layer_1" xmlns="http://www.w3.org/2000/svg" xmlns:xlink="http://www.w3.org/1999/xlink" x="0px" y="0px"
	 viewBox="0 0 401.4 138.4" style="enable-background:new 0 0 401.4 138.4;" xml:space="preserve">
<style type="text/css">
	.st0{fill:#FFFFFF;}
</style>
<g id="XMLID_1_">
	<g id="XMLID_278_">
		<g id="XMLID_279_">
			<g id="XMLID_296_">
				<path id="XMLID_297_" class="st0" d="M35.7,98.9c-1,0-1.8,0-2.4,0c-0.6,0-1.3-0.4-2.1-1.1L1.7,73.9c-0.8-0.7-1.3-1.2-1.5-1.5
					C0.1,72,0,71.4,0,70.5v-2.7c0-0.9,0.1-1.6,0.2-1.9c0.2-0.3,0.7-0.8,1.5-1.5l29.5-24c0.8-0.7,1.5-1,2.1-1c0.6,0,1.4,0,2.4,0h6.5
					c1.9,0,2.9,0.7,2.9,2.1v14.8c0,0.5-0.1,1-0.2,1.5c-0.1,0.5-0.5,0.9-1.2,1.2l-18.8,7.3V72l18.8,7.4c0.7,0.2,1.1,0.6,1.2,1.1
					c0.1,0.5,0.2,1,0.2,1.5v14.9c0,1.4-1,2.1-2.9,2.1H35.7z"/>
			</g>
			<g id="XMLID_293_">
				<path id="XMLID_294_" class="st0" d="M58.1,138.4c-1.6,0-2.2-0.7-1.8-2.2L88.8,1.9C89.1,0.6,89.8,0,91,0h21.2
					c1.5,0,2.1,0.7,1.7,2.2L81.5,136.4c-0.3,1.3-1.1,2-2.2,2H58.1z"/>
			</g>
			<g id="XMLID_289_">
				<path id="XMLID_290_" class="st0" d="M148.3,124.5c-1.3,0-2.4-0.5-3.3-1.4l-16.6-16.6c-0.9-0.9-1.4-2-1.4-3.3V54.5
					c0-1.3,0.5-2.4,1.4-3.3L145,34.6c0.9-0.9,2-1.4,3.3-1.4h44.4c1.4,0,2.1,0.7,2.1,2.1v87.1c0,1.4-0.7,2.1-2.1,2.1h-17.3
					c-0.7,0-1.3-0.1-1.6-0.4c-0.4-0.3-0.8-0.6-1.2-1l-4.1-4.1l-4.1,4.1c-0.9,0.9-2,1.4-3.3,1.4H148.3z M158,105.2h5.8
					c1.8,0,3-0.4,3.7-1.1c0.7-0.7,1-2,1-3.8V52.5H158c-1.8,0-3.1,0.4-3.7,1.1c-0.7,0.7-1,2-1,3.8v42.8c0,1.8,0.3,3.1,1,3.8
					C155,104.8,156.2,105.2,158,105.2z"/>
			</g>
			<g id="XMLID_286_">
				<path id="XMLID_287_" class="st0" d="M216.2,124.5c-1.4,0-2.1-0.7-2.1-2.1V35.3c0-1.4,0.7-2.1,2.1-2.1h12.6c1.1,0,2,0.5,2.7,1.4
					l8.1,9.4l9-9.8c0.6-0.7,1.4-1,2.3-1h9c1.4,0,2.1,0.7,2.1,2.1v17.8c0,0.9-0.1,1.5-0.2,1.8c-0.1,0.3-0.4,0.6-0.9,1L240.4,71v51.4
					c0,1.4-0.7,2.1-2.1,2.1H216.2z"/>
			</g>
			<g id="XMLID_283_">
				<path id="XMLID_284_" class="st0" d="M292.8,124.5c-1.3,0-2.4-0.5-3.3-1.4l-16.6-16.6c-0.9-0.9-1.4-2-1.4-3.3V35.3
					c0-1.4,0.7-2.1,2.1-2.1h22.2c1.4,0,2.1,0.7,2.1,2.1v68.5H313V35.3c0-1.4,0.7-2.1,2.1-2.1h22.2c1.4,0,2.1,0.7,2.1,2.1v67.9
					c0,1.3-0.5,2.4-1.4,3.3l-16.6,16.6c-0.9,0.9-2,1.4-3.3,1.4H292.8z"/>
			</g>
			<g id="XMLID_280_">
				<path id="XMLID_281_" class="st0" d="M365.7,98.9h-6.5c-1.9,0-2.9-0.7-2.9-2.1V82c0-0.4,0.1-0.9,0.2-1.5
					c0.1-0.5,0.5-0.9,1.2-1.1l18.8-7.4v-5.8l-18.8-7.3c-0.7-0.3-1.1-0.7-1.2-1.2c-0.1-0.5-0.2-1-0.2-1.5V41.5c0-1.4,1-2.1,2.9-2.1
					h6.5c1,0,1.8,0,2.4,0c0.6,0,1.3,0.4,2.1,1l29.5,24c0.8,0.7,1.3,1.1,1.5,1.5c0.2,0.3,0.2,0.9,0.2,1.9v2.7c0,0.9-0.1,1.5-0.2,1.8
					c-0.2,0.3-0.7,0.8-1.5,1.5l-29.5,23.9c-0.8,0.7-1.5,1.1-2.1,1.1C367.5,98.9,366.7,98.9,365.7,98.9z"/>
			</g>
		</g>
	</g>
</g>
<g id="XMLID_88_">
</g>
<g id="XMLID_111_">
</g>
<g id="XMLID_112_">
</g>
<g id="XMLID_113_">
</g>
<g id="XMLID_114_">
</g>
<g id="XMLID_115_">
</g>
</svg>
