<?xml version="1.0" encoding="utf-8"?>
<!-- Generator: Adobe Illustrator 19.0.0, SVG Export Plug-In . SVG Version: 6.00 Build 0)  -->
<svg version="1.1" id="Layer_1" xmlns="http://www.w3.org/2000/svg" xmlns:xlink="http://www.w3.org/1999/xlink" x="0px" y="0px"
	 viewBox="0 0 450.9 112.6" style="enable-background:new 0 0 450.9 112.6;" xml:space="preserve">
<style type="text/css">
	.st0{fill:#FFFFFF;}
</style>
<g id="XMLID_2_">
	<path id="XMLID_5_" class="st0" d="M3.6,73C1.2,71.1,0,69.6,0,68.3c0-2.3,1.2-4.2,3.6-5.8l41.7-29.1c2.7-1.8,4.8-3.3,6.2-4.5
		c2-1.7,3.6-2.5,4.9-2.5c2.4,0,3.7,0.9,3.7,2.6c0,1.3-1.1,2.7-3.3,4c-4.7,3-7.3,4.6-7.7,4.9L6.9,67.9C32.2,86.4,45.5,96,46.7,96.7
		l8.5,5.6c1.5,0.9,2.6,1.7,3.5,2.5c0.9,0.7,1.3,1.6,1.3,2.6s-0.3,1.8-1,2.3c-0.6,0.6-1.3,0.8-2.1,0.8c-1.4,0-2.9-0.6-4.3-1.8
		c-1.5-1.2-3.2-2.5-5.3-4L3.6,73z"/>
	<path id="XMLID_7_" class="st0" d="M78.3,110.6c-2.1,0-3.1-1.2-3.1-3.7c0-1.4,0.7-3,2-4.9c1.1-2.2,2.4-5.6,3.7-10.2l23.4-80.1
		c2-6.9,3.9-10.6,5.5-11.3c0.6-0.3,1.2-0.4,1.9-0.4c1.9,0,2.9,0.9,2.9,2.8c0,1.1-0.3,2.1-0.8,3.2c-0.6,1-1,1.9-1.3,2.5
		c-0.3,0.6-0.6,1.3-0.9,2l-0.8,2.2c-0.3,0.8-0.6,1.5-0.8,2.1L85.5,97.9c-1.6,5.5-2.8,8.9-3.5,10.1C81,109.7,79.7,110.6,78.3,110.6z"
		/>
	<path id="XMLID_9_" class="st0" d="M184.9,104.1c-6.5,4.3-13.7,6.5-21.6,6.5c-10.5,0-18.9-2.6-25.3-7.9c-6.6-5.4-9.9-13-9.9-22.6
		c0-8.5,3.3-15.5,9.8-21c6.7-5.5,15.5-8.3,26.4-8.3c7.3,0,14.2,1.4,20.6,4.2V34c-4.6-1.3-8.7-2-12.2-2c-3.5,0-6.5,0.2-9,0.5
		s-4.7,0.8-6.9,1.4c-4.7,1.3-8.3,3.1-10.7,5.3c-1.4,1.3-2.7,2-3.9,2c-1.2,0-2.1-0.3-2.7-0.9c-0.6-0.6-0.9-1.2-0.9-1.9
		c0-0.7,0.1-1.4,0.4-1.9c0.3-0.6,0.7-1.2,1.4-1.8c1.5-1.3,4.1-2.6,7.6-4c7.4-2.8,14.8-4.2,22.2-4.2c22.5,0,36.9,5.4,43.2,16.1
		c2.7,4.8,4.1,11,4.1,18.8v47.8h-32.6V104.1z M184.9,60.9c-6.4-3.1-12.8-4.6-19.1-4.6c-1,0-2,0.1-2.9,0.2v48.4
		c0.3,0.1,0.5,0.1,0.8,0.1s0.6,0,0.9,0c7,0,13.7-2.5,20.3-7.4V60.9z"/>
	<path id="XMLID_12_" class="st0" d="M241.3,27.8h32.8v23.9c3.5-8.7,7.3-15.1,11.3-19.2c4-4.1,8.1-6.1,12.2-6.1
		c2.3,0,4.1,0.6,5.4,1.8c1.3,1.2,2,2.5,2,4c0,1.5-0.2,2.6-0.6,3.5c-0.4,0.9-0.9,1.6-1.6,2.2c-1.4,1.3-2.7,1.9-3.9,1.9
		c-1.9,0-3.4-0.2-4.3-0.6c-1.6-0.7-3-1.1-4.2-1.1s-2.8,1-4.6,2.9c-1.9,2-3.7,4.7-5.4,8.1c-4.2,8.4-6.3,17.6-6.3,27.4v32.5h-32.8
		V27.8z"/>
	<path id="XMLID_14_" class="st0" d="M301.9,27.8h34.5l20.7,42.7l13-25.9c2.7-5.5,4.4-9.6,5.1-12.3c0.7-2.7,1.4-4.3,2.1-5
		s1.5-0.9,2.5-0.9s1.8,0.3,2.3,1c0.6,0.7,0.8,1.3,0.8,2c0,0.7-0.1,1.3-0.2,2c-0.1,0.7-0.4,1.5-0.7,2.7c-0.8,2.1-2.4,5.7-4.8,10.8
		l-33.5,67.7L301.9,27.8z"/>
	<path id="XMLID_16_" class="st0" d="M391.8,109.8c-0.6-0.6-0.9-1.3-0.9-2.3s0.4-1.9,1.3-2.6c0.9-0.7,1.8-1.4,2.8-2.1
		c7-4.5,11.2-7.3,12.6-8.4l36.3-26.5l-42.1-29.9c-3.7-2.3-5.8-3.6-6.3-4c-0.6-0.4-1.3-0.8-2.2-1.4c-1.6-1-2.4-2-2.4-3c0-2,1-3,3-3
		c1.6,0,3.1,0.6,4.5,1.7c2.3,1.9,4.7,3.7,7.2,5.3l41.7,29.1c2.4,1.6,3.6,3.3,3.6,5.1c0,1.7-1.2,3.5-3.6,5.3l-46.5,33.8
		c-0.8,0.6-1.5,1.1-2.2,1.8C395.7,110.8,393.5,111.2,391.8,109.8z"/>
</g>
<g id="XMLID_67_">
</g>
<g id="XMLID_68_">
</g>
<g id="XMLID_69_">
</g>
<g id="XMLID_70_">
</g>
<g id="XMLID_71_">
</g>
<g id="XMLID_72_">
</g>
</svg>
